<?xml version="1.0" standalone="no"?><!DOCTYPE svg PUBLIC "-//W3C//DTD SVG 1.1//EN" "http://www.w3.org/Graphics/SVG/1.1/DTD/svg11.dtd"><svg t="1783564691057" class="icon" viewBox="0 0 1024 1024" version="1.1" xmlns="http://www.w3.org/2000/svg" p-id="15160" xmlns:xlink="http://www.w3.org/1999/xlink" width="200" height="200"><path d="M757.833143 481.28H265.947429a122.953143 122.953143 0 0 1 0-245.76h313.051428a91.794286 91.794286 0 0 0 173.202286 0h159.305143a30.72 30.72 0 1 0 0-61.586286h-159.305143a91.794286 91.794286 0 0 0-173.202286 0h-313.051428a184.393143 184.393143 0 0 0 0 368.786286h491.739428a122.953143 122.953143 0 0 1 0 245.76H444.708571a91.794286 91.794286 0 0 0-173.129142 0H112.493714a30.72 30.72 0 1 0 0 61.586286h159.305143a91.794286 91.794286 0 0 0 173.202286 0h312.832a184.32 184.32 0 1 0 0-368.786286zM665.6 174.08a30.72 30.72 0 0 1 31.817143 29.622857 30.72 30.72 0 0 1-29.549714 31.817143H665.6a30.646857 30.646857 0 0 1-29.622857-31.817143 30.500571 30.500571 0 0 1 29.622857-29.622857z m-307.346286 675.986286a30.72 30.72 0 1 1-0.146285-61.44 30.72 30.72 0 0 1 0.146285 61.44z" fill="#595962" p-id="15161"></path></svg>